<?xml version="1.0" encoding="utf-8" standalone="no"?>
<!DOCTYPE svg PUBLIC "-//W3C//DTD SVG 1.1//EN"
  "http://www.w3.org/Graphics/SVG/1.1/DTD/svg11.dtd">
<!-- Created with matplotlib (https://matplotlib.org/) -->
<svg height="151.105pt" version="1.1" viewBox="0 0 555.97 151.105" width="555.97pt" xmlns="http://www.w3.org/2000/svg" xmlns:xlink="http://www.w3.org/1999/xlink">
 <metadata>
  <rdf:RDF xmlns:cc="http://creativecommons.org/ns#" xmlns:dc="http://purl.org/dc/elements/1.1/" xmlns:rdf="http://www.w3.org/1999/02/22-rdf-syntax-ns#">
   <cc:Work>
    <dc:type rdf:resource="http://purl.org/dc/dcmitype/StillImage"/>
    <dc:date>2020-11-08T23:45:10.688216</dc:date>
    <dc:format>image/svg+xml</dc:format>
    <dc:creator>
     <cc:Agent>
      <dc:title>Matplotlib v3.3.2, https://matplotlib.org/</dc:title>
     </cc:Agent>
    </dc:creator>
   </cc:Work>
  </rdf:RDF>
 </metadata>
 <defs>
  <style type="text/css">*{stroke-linecap:butt;stroke-linejoin:round;}</style>
 </defs>
 <g id="figure_1">
  <g id="patch_1">
   <path d="M 0 151.105 
L 555.97 151.105 
L 555.97 0 
L 0 0 
z
" style="fill:none;"/>
  </g>
  <g id="axes_1">
   <g id="patch_2">
    <path clip-path="url(#p619bdc4620)" d="M 146.6 139.29 
C 150.89629 139.29 155.017194 137.677895 158.05513 134.808734 
C 161.093066 131.939572 162.8 128.047607 162.8 123.99 
C 162.8 119.932393 161.093066 116.040428 158.05513 113.171266 
C 155.017194 110.302105 150.89629 108.69 146.6 108.69 
C 142.30371 108.69 138.182806 110.302105 135.14487 113.171266 
C 132.106934 116.040428 130.4 119.932393 130.4 123.99 
C 130.4 128.047607 132.106934 131.939572 135.14487 134.808734 
C 138.182806 137.677895 142.30371 139.29 146.6 139.29 
z
" style="fill:none;stroke:#000000;stroke-dasharray:7.4,3.2;stroke-dashoffset:0;stroke-linejoin:miter;stroke-width:2;"/>
   </g>
   <g id="patch_3">
    <path clip-path="url(#p619bdc4620)" d="M 405.8 139.29 
C 410.09629 139.29 414.217194 137.677895 417.25513 134.808734 
C 420.293066 131.939572 422 128.047607 422 123.99 
C 422 119.932393 420.293066 116.040428 417.25513 113.171266 
C 414.217194 110.302105 410.09629 108.69 405.8 108.69 
C 401.50371 108.69 397.382806 110.302105 394.34487 113.171266 
C 391.306934 116.040428 389.6 119.932393 389.6 123.99 
C 389.6 128.047607 391.306934 131.939572 394.34487 134.808734 
C 397.382806 137.677895 401.50371 139.29 405.8 139.29 
z
" style="fill:none;stroke:#000000;stroke-dasharray:7.4,3.2;stroke-dashoffset:0;stroke-linejoin:miter;stroke-width:2;"/>
   </g>
   <g id="line2d_1">
    <path clip-path="url(#p619bdc4620)" d="M 17 32.19 
L 33.2 32.19 
L 49.4 32.19 
" style="fill:none;stroke:#000000;stroke-linecap:round;stroke-width:2;"/>
   </g>
   <g id="line2d_2">
    <path clip-path="url(#p619bdc4620)" d="M 49.4 32.19 
L 81.8 32.19 
L 84.5 24.54 
L 89.9 39.84 
L 95.3 24.54 
L 100.7 39.84 
L 106.1 24.54 
L 111.5 39.84 
L 114.2 32.19 
L 146.6 32.19 
" style="fill:none;stroke:#000000;stroke-linecap:round;stroke-width:2;"/>
   </g>
   <g id="line2d_3">
    <path clip-path="url(#p619bdc4620)" d="M 146.6 32.19 
L 179 32.19 
L 181.7 24.54 
L 187.1 39.84 
L 192.5 24.54 
L 197.9 39.84 
L 203.3 24.54 
L 208.7 39.84 
L 211.4 32.19 
L 243.8 32.19 
" style="fill:none;stroke:#000000;stroke-linecap:round;stroke-width:2;"/>
   </g>
   <g id="line2d_4">
    <path clip-path="url(#p619bdc4620)" d="M 243.8 32.19 
L 260 32.19 
L 276.2 32.19 
" style="fill:none;stroke:#000000;stroke-linecap:round;stroke-width:2;"/>
   </g>
   <g id="line2d_5">
    <path clip-path="url(#p619bdc4620)" d="M 276.2 32.19 
L 276.2 75.336 
M 284.3 75.336 
L 268.1 75.336 
M 284.3 80.844 
L 268.1 80.844 
M 276.2 80.844 
L 276.2 123.99 
" style="fill:none;stroke:#000000;stroke-linecap:round;stroke-width:2;"/>
   </g>
   <g id="line2d_6">
    <path clip-path="url(#p619bdc4620)" d="M 276.2 123.99 
L 162.8 123.99 
L 162.8 123.99 
M 130.4 123.99 
L 130.4 123.99 
L 17 123.99 
" style="fill:none;stroke:#000000;stroke-dasharray:7.4,3.2;stroke-dashoffset:0;stroke-width:2;"/>
   </g>
   <g id="line2d_7">
    <path clip-path="url(#p619bdc4620)" d="M 154.7 120.93 
L 154.7 127.05 
" style="fill:none;stroke:#000000;stroke-dasharray:7.4,3.2;stroke-dashoffset:0;stroke-width:2;"/>
   </g>
   <g id="line2d_8">
    <path clip-path="url(#p619bdc4620)" d="M 141.74 123.99 
L 135.26 123.99 
" style="fill:none;stroke:#000000;stroke-dasharray:7.4,3.2;stroke-dashoffset:0;stroke-width:2;"/>
   </g>
   <g id="line2d_9">
    <path clip-path="url(#p619bdc4620)" d="M 138.5 120.93 
L 138.5 127.05 
" style="fill:none;stroke:#000000;stroke-dasharray:7.4,3.2;stroke-dashoffset:0;stroke-width:2;"/>
   </g>
   <g id="line2d_10">
    <path clip-path="url(#p619bdc4620)" d="M 17 123.99 
L 17 78.09 
L 17 32.19 
" style="fill:none;stroke:#000000;stroke-dasharray:7.4,3.2;stroke-dashoffset:0;stroke-width:2;"/>
   </g>
   <g id="line2d_11">
    <path clip-path="url(#p619bdc4620)" d="M 276.2 32.19 
L 292.4 32.19 
L 308.6 32.19 
" style="fill:none;stroke:#000000;stroke-linecap:round;stroke-width:2;"/>
   </g>
   <g id="line2d_12">
    <path clip-path="url(#p619bdc4620)" d="M 308.6 32.19 
L 341 32.19 
L 343.7 24.54 
L 349.1 39.84 
L 354.5 24.54 
L 359.9 39.84 
L 365.3 24.54 
L 370.7 39.84 
L 373.4 32.19 
L 405.8 32.19 
" style="fill:none;stroke:#000000;stroke-linecap:round;stroke-width:2;"/>
   </g>
   <g id="line2d_13">
    <path clip-path="url(#p619bdc4620)" d="M 405.8 32.19 
L 438.2 32.19 
L 440.9 24.54 
L 446.3 39.84 
L 451.7 24.54 
L 457.1 39.84 
L 462.5 24.54 
L 467.9 39.84 
L 470.6 32.19 
L 503 32.19 
" style="fill:none;stroke:#000000;stroke-linecap:round;stroke-width:2;"/>
   </g>
   <g id="line2d_14">
    <path clip-path="url(#p619bdc4620)" d="M 503 32.19 
L 519.2 32.19 
L 535.4 32.19 
" style="fill:none;stroke:#000000;stroke-linecap:round;stroke-width:2;"/>
   </g>
   <g id="line2d_15">
    <path clip-path="url(#p619bdc4620)" d="M 535.4 32.19 
L 535.4 78.09 
L 535.4 123.99 
" style="fill:none;stroke:#000000;stroke-dasharray:7.4,3.2;stroke-dashoffset:0;stroke-width:2;"/>
   </g>
   <g id="line2d_16">
    <path clip-path="url(#p619bdc4620)" d="M 535.4 123.99 
L 422 123.99 
L 422 123.99 
M 389.6 123.99 
L 389.6 123.99 
L 276.2 123.99 
" style="fill:none;stroke:#000000;stroke-dasharray:7.4,3.2;stroke-dashoffset:0;stroke-width:2;"/>
   </g>
   <g id="line2d_17">
    <path clip-path="url(#p619bdc4620)" d="M 397.7 127.05 
L 397.7 120.93 
" style="fill:none;stroke:#000000;stroke-dasharray:7.4,3.2;stroke-dashoffset:0;stroke-width:2;"/>
   </g>
   <g id="line2d_18">
    <path clip-path="url(#p619bdc4620)" d="M 417.14 123.99 
L 410.66 123.99 
" style="fill:none;stroke:#000000;stroke-dasharray:7.4,3.2;stroke-dashoffset:0;stroke-width:2;"/>
   </g>
   <g id="line2d_19">
    <path clip-path="url(#p619bdc4620)" d="M 413.9 127.05 
L 413.9 120.93 
" style="fill:none;stroke:#000000;stroke-dasharray:7.4,3.2;stroke-dashoffset:0;stroke-width:2;"/>
   </g>
   <g id="text_1">
    <!-- $R_{T_{in}}$ -->
    <g transform="translate(86.66 17.56)scale(0.14 -0.14)">
     <defs>
      <path d="M 25.203125 64.796875 
L 20.21875 38.921875 
L 32.90625 38.921875 
Q 40.375 38.921875 44.984375 43.046875 
Q 49.609375 47.171875 49.609375 53.8125 
Q 49.609375 59.125 46.5 61.953125 
Q 43.40625 64.796875 37.59375 64.796875 
z
M 43.3125 35.015625 
Q 46.4375 34.28125 48.515625 31.390625 
Q 50.59375 28.515625 53.328125 19.921875 
L 59.515625 0 
L 49.125 0 
L 43.40625 18.703125 
Q 41.21875 25.921875 38.328125 28.359375 
Q 35.453125 30.8125 29.5 30.8125 
L 18.609375 30.8125 
L 12.59375 0 
L 2.6875 0 
L 16.890625 72.90625 
L 39.109375 72.90625 
Q 49.21875 72.90625 54.609375 68.328125 
Q 60.015625 63.765625 60.015625 55.171875 
Q 60.015625 47.5625 55.421875 41.984375 
Q 50.828125 36.421875 43.3125 35.015625 
z
" id="DejaVuSans-Oblique-82"/>
      <path d="M 5.90625 72.90625 
L 67.578125 72.90625 
L 66.015625 64.59375 
L 39.984375 64.59375 
L 27.484375 0 
L 17.578125 0 
L 30.078125 64.59375 
L 4.296875 64.59375 
z
" id="DejaVuSans-Oblique-84"/>
      <path d="M 18.3125 75.984375 
L 27.296875 75.984375 
L 25.09375 64.59375 
L 16.109375 64.59375 
z
M 14.203125 54.6875 
L 23.1875 54.6875 
L 12.5 0 
L 3.515625 0 
z
" id="DejaVuSans-Oblique-105"/>
      <path d="M 55.71875 33.015625 
L 49.3125 0 
L 40.28125 0 
L 46.6875 32.671875 
Q 47.125 34.96875 47.359375 36.71875 
Q 47.609375 38.484375 47.609375 39.5 
Q 47.609375 43.609375 45.015625 45.890625 
Q 42.4375 48.1875 37.796875 48.1875 
Q 30.5625 48.1875 25.34375 43.375 
Q 20.125 38.578125 18.5 30.328125 
L 12.5 0 
L 3.515625 0 
L 14.109375 54.6875 
L 23.09375 54.6875 
L 21.296875 46.09375 
Q 25.046875 50.828125 30.3125 53.40625 
Q 35.59375 56 41.40625 56 
Q 48.640625 56 52.609375 52.09375 
Q 56.59375 48.1875 56.59375 41.109375 
Q 56.59375 39.359375 56.375 37.359375 
Q 56.15625 35.359375 55.71875 33.015625 
z
" id="DejaVuSans-Oblique-110"/>
     </defs>
     <use transform="translate(0 0.09375)" xlink:href="#DejaVuSans-Oblique-82"/>
     <use transform="translate(69.482422 -16.3125)scale(0.7)" xlink:href="#DejaVuSans-Oblique-84"/>
     <use transform="translate(112.241211 -27.796875)scale(0.49)" xlink:href="#DejaVuSans-Oblique-105"/>
     <use transform="translate(125.85498 -27.796875)scale(0.49)" xlink:href="#DejaVuSans-Oblique-110"/>
    </g>
   </g>
   <g id="text_2">
    <!-- $R_{V_{in}}$ -->
    <g transform="translate(183.51 17.56)scale(0.14 -0.14)">
     <defs>
      <path d="M 20.609375 0 
L 7.8125 72.90625 
L 17.484375 72.90625 
L 28.078125 10.203125 
L 63.484375 72.90625 
L 74.21875 72.90625 
L 32.078125 0 
z
" id="DejaVuSans-Oblique-86"/>
     </defs>
     <use transform="translate(0 0.09375)" xlink:href="#DejaVuSans-Oblique-82"/>
     <use transform="translate(69.482422 -16.3125)scale(0.7)" xlink:href="#DejaVuSans-Oblique-86"/>
     <use transform="translate(117.368164 -27.796875)scale(0.49)" xlink:href="#DejaVuSans-Oblique-105"/>
     <use transform="translate(130.981934 -27.796875)scale(0.49)" xlink:href="#DejaVuSans-Oblique-110"/>
    </g>
   </g>
   <g id="text_3">
    <!-- $C_C$ -->
    <g transform="translate(247.78 81.953125)scale(0.14 -0.14)">
     <defs>
      <path d="M 69.484375 67.28125 
L 67.484375 56.890625 
Q 62.796875 61.625 57.546875 63.921875 
Q 52.296875 66.21875 46.1875 66.21875 
Q 37.84375 66.21875 31.515625 62.203125 
Q 25.203125 58.203125 20.609375 50 
Q 17.671875 44.734375 16.125 38.84375 
Q 14.59375 32.953125 14.59375 27 
Q 14.59375 17.046875 19.75 11.8125 
Q 24.90625 6.59375 34.71875 6.59375 
Q 41.5 6.59375 47.75 8.765625 
Q 54 10.9375 59.90625 15.28125 
L 57.625 3.609375 
Q 51.8125 1.125 45.875 -0.140625 
Q 39.9375 -1.421875 33.984375 -1.421875 
Q 19.96875 -1.421875 12.078125 6.1875 
Q 4.203125 13.8125 4.203125 27.390625 
Q 4.203125 36.078125 7.203125 44.46875 
Q 10.203125 52.875 15.828125 59.8125 
Q 21.78125 67.1875 29.421875 70.703125 
Q 37.0625 74.21875 47.21875 74.21875 
Q 53.46875 74.21875 59.0625 72.484375 
Q 64.65625 70.75 69.484375 67.28125 
z
" id="DejaVuSans-Oblique-67"/>
     </defs>
     <use transform="translate(0 0.78125)" xlink:href="#DejaVuSans-Oblique-67"/>
     <use transform="translate(69.824219 -15.625)scale(0.7)" xlink:href="#DejaVuSans-Oblique-67"/>
    </g>
   </g>
   <g id="text_4">
    <!-- $U_{Signal} - U_{in}$ -->
    <g transform="translate(107.82 101.29)scale(0.14 -0.14)">
     <defs>
      <path d="M 15.484375 72.90625 
L 25.390625 72.90625 
L 16.796875 28.609375 
Q 16.265625 25.640625 16.046875 23.703125 
Q 15.828125 21.78125 15.828125 20.3125 
Q 15.828125 13.578125 19.578125 10.078125 
Q 23.34375 6.59375 30.609375 6.59375 
Q 40.046875 6.59375 45.28125 11.765625 
Q 50.53125 16.9375 52.78125 28.609375 
L 61.375 72.90625 
L 71.296875 72.90625 
L 62.5 27.390625 
Q 59.625 12.640625 51.5625 5.609375 
Q 43.5 -1.421875 29.5 -1.421875 
Q 18.5625 -1.421875 12.1875 4.078125 
Q 5.8125 9.578125 5.8125 19 
Q 5.8125 20.703125 6.046875 22.828125 
Q 6.296875 24.953125 6.78125 27.390625 
z
" id="DejaVuSans-Oblique-85"/>
      <path d="M 60.296875 70.515625 
L 58.40625 60.890625 
Q 53.46875 63.53125 48.609375 64.875 
Q 43.75 66.21875 39.203125 66.21875 
Q 30.375 66.21875 25.140625 62.359375 
Q 19.921875 58.5 19.921875 52.09375 
Q 19.921875 48.578125 21.84375 46.703125 
Q 23.78125 44.828125 31.78125 42.671875 
L 37.703125 41.21875 
Q 47.703125 38.625 51.609375 34.640625 
Q 55.515625 30.671875 55.515625 23.484375 
Q 55.515625 12.453125 46.84375 5.515625 
Q 38.1875 -1.421875 24.03125 -1.421875 
Q 18.21875 -1.421875 12.359375 -0.265625 
Q 6.5 0.875 0.59375 3.21875 
L 2.59375 13.375 
Q 8.015625 10.015625 13.453125 8.296875 
Q 18.890625 6.59375 24.3125 6.59375 
Q 33.546875 6.59375 39.109375 10.6875 
Q 44.671875 14.796875 44.671875 21.390625 
Q 44.671875 25.78125 42.453125 28.046875 
Q 40.234375 30.328125 32.90625 32.171875 
L 27 33.6875 
Q 16.890625 36.328125 13.203125 39.765625 
Q 9.515625 43.21875 9.515625 49.421875 
Q 9.515625 60.296875 17.890625 67.25 
Q 26.265625 74.21875 39.703125 74.21875 
Q 44.921875 74.21875 50.046875 73.28125 
Q 55.171875 72.359375 60.296875 70.515625 
z
" id="DejaVuSans-Oblique-83"/>
      <path d="M 59.625 54.6875 
L 50.296875 6.78125 
Q 47.609375 -7.125 40.015625 -13.953125 
Q 32.421875 -20.796875 19.578125 -20.796875 
Q 14.84375 -20.796875 10.78125 -20.09375 
Q 6.734375 -19.390625 3.21875 -17.921875 
L 4.890625 -9.1875 
Q 8.203125 -11.328125 11.90625 -12.34375 
Q 15.625 -13.375 19.828125 -13.375 
Q 28.375 -13.375 33.859375 -8.703125 
Q 39.359375 -4.046875 41.109375 4.6875 
L 41.890625 8.796875 
Q 38.140625 4.5 33.15625 2.25 
Q 28.171875 0 22.40625 0 
Q 14.109375 0 9.34375 5.484375 
Q 4.59375 10.984375 4.59375 20.609375 
Q 4.59375 28.171875 7.46875 35.421875 
Q 10.359375 42.671875 15.578125 48.296875 
Q 19.046875 52 23.65625 54 
Q 28.265625 56 33.296875 56 
Q 38.8125 56 42.90625 53.4375 
Q 47.015625 50.875 49.03125 46.1875 
L 50.59375 54.6875 
z
M 46.09375 34.625 
Q 46.09375 41.265625 42.96875 44.875 
Q 39.84375 48.484375 34.078125 48.484375 
Q 30.515625 48.484375 27.296875 47.0625 
Q 24.078125 45.65625 21.78125 43.109375 
Q 18.0625 38.921875 15.984375 33.234375 
Q 13.921875 27.546875 13.921875 21.484375 
Q 13.921875 14.75 17.0625 11.125 
Q 20.21875 7.515625 26.125 7.515625 
Q 34.671875 7.515625 40.375 15.25 
Q 46.09375 23 46.09375 34.625 
z
" id="DejaVuSans-Oblique-103"/>
      <path d="M 53.71875 31.203125 
L 47.609375 0 
L 38.625 0 
L 40.28125 8.296875 
Q 36.328125 3.421875 31.265625 1 
Q 26.21875 -1.421875 20.015625 -1.421875 
Q 13.03125 -1.421875 8.5625 2.84375 
Q 4.109375 7.125 4.109375 13.8125 
Q 4.109375 23.390625 11.75 28.953125 
Q 19.390625 34.515625 32.8125 34.515625 
L 45.3125 34.515625 
L 45.796875 36.921875 
Q 45.90625 37.3125 45.953125 37.765625 
Q 46 38.234375 46 39.203125 
Q 46 43.5625 42.453125 45.96875 
Q 38.921875 48.390625 32.515625 48.390625 
Q 28.125 48.390625 23.5 47.265625 
Q 18.890625 46.140625 14.015625 43.890625 
L 15.578125 52.203125 
Q 20.65625 54.109375 25.515625 55.046875 
Q 30.375 56 34.90625 56 
Q 44.578125 56 49.625 51.796875 
Q 54.6875 47.609375 54.6875 39.59375 
Q 54.6875 37.984375 54.4375 35.8125 
Q 54.203125 33.640625 53.71875 31.203125 
z
M 44 27.484375 
L 35.015625 27.484375 
Q 23.96875 27.484375 18.671875 24.53125 
Q 13.375 21.578125 13.375 15.375 
Q 13.375 11.078125 16.078125 8.640625 
Q 18.796875 6.203125 23.578125 6.203125 
Q 30.90625 6.203125 36.375 11.453125 
Q 41.84375 16.703125 43.609375 25.484375 
z
" id="DejaVuSans-Oblique-97"/>
      <path d="M 18.3125 75.984375 
L 27.296875 75.984375 
L 12.5 0 
L 3.515625 0 
z
" id="DejaVuSans-Oblique-108"/>
      <path d="M 10.59375 35.5 
L 73.1875 35.5 
L 73.1875 27.203125 
L 10.59375 27.203125 
z
" id="DejaVuSans-8722"/>
     </defs>
     <use transform="translate(0 0.09375)" xlink:href="#DejaVuSans-Oblique-85"/>
     <use transform="translate(73.193359 -16.3125)scale(0.7)" xlink:href="#DejaVuSans-Oblique-83"/>
     <use transform="translate(117.626953 -16.3125)scale(0.7)" xlink:href="#DejaVuSans-Oblique-105"/>
     <use transform="translate(137.075195 -16.3125)scale(0.7)" xlink:href="#DejaVuSans-Oblique-103"/>
     <use transform="translate(181.508789 -16.3125)scale(0.7)" xlink:href="#DejaVuSans-Oblique-110"/>
     <use transform="translate(225.874023 -16.3125)scale(0.7)" xlink:href="#DejaVuSans-Oblique-97"/>
     <use transform="translate(268.769531 -16.3125)scale(0.7)" xlink:href="#DejaVuSans-Oblique-108"/>
     <use transform="translate(310.43457 0.09375)" xlink:href="#DejaVuSans-8722"/>
     <use transform="translate(413.706055 0.09375)" xlink:href="#DejaVuSans-Oblique-85"/>
     <use transform="translate(486.899414 -16.3125)scale(0.7)" xlink:href="#DejaVuSans-Oblique-105"/>
     <use transform="translate(506.347656 -16.3125)scale(0.7)" xlink:href="#DejaVuSans-Oblique-110"/>
    </g>
   </g>
   <g id="text_5">
    <!-- $R_{V_{out}}$ -->
    <g transform="translate(342.99 17.42)scale(0.14 -0.14)">
     <defs>
      <path d="M 25.390625 -1.421875 
Q 15.765625 -1.421875 10.171875 4.515625 
Q 4.59375 10.453125 4.59375 20.703125 
Q 4.59375 26.65625 6.515625 32.828125 
Q 8.453125 39.015625 11.53125 43.21875 
Q 16.359375 49.75 22.3125 52.875 
Q 28.265625 56 35.796875 56 
Q 45.125 56 50.859375 50.1875 
Q 56.59375 44.390625 56.59375 35.015625 
Q 56.59375 28.515625 54.6875 22.0625 
Q 52.78125 15.625 49.703125 11.375 
Q 44.921875 4.828125 38.96875 1.703125 
Q 33.015625 -1.421875 25.390625 -1.421875 
z
M 13.921875 21 
Q 13.921875 13.578125 17.015625 9.890625 
Q 20.125 6.203125 26.421875 6.203125 
Q 35.453125 6.203125 41.375 14.078125 
Q 47.3125 21.96875 47.3125 34.078125 
Q 47.3125 41.15625 44.140625 44.765625 
Q 40.96875 48.390625 34.8125 48.390625 
Q 29.734375 48.390625 25.78125 46.015625 
Q 21.828125 43.65625 18.703125 38.8125 
Q 16.40625 35.203125 15.15625 30.5625 
Q 13.921875 25.921875 13.921875 21 
z
" id="DejaVuSans-Oblique-111"/>
      <path d="M 6.6875 21.6875 
L 13.09375 54.6875 
L 22.125 54.6875 
L 15.71875 22.015625 
Q 15.234375 19.625 15.015625 17.921875 
Q 14.796875 16.21875 14.796875 15.09375 
Q 14.796875 10.9375 17.328125 8.65625 
Q 19.875 6.390625 24.515625 6.390625 
Q 31.734375 6.390625 37 11.265625 
Q 42.28125 16.15625 43.890625 24.421875 
L 49.90625 54.6875 
L 58.890625 54.6875 
L 48.296875 0 
L 39.3125 0 
L 41.109375 8.59375 
Q 37.3125 3.8125 32.0625 1.1875 
Q 26.8125 -1.421875 20.90625 -1.421875 
Q 13.71875 -1.421875 9.71875 2.515625 
Q 5.71875 6.453125 5.71875 13.484375 
Q 5.71875 14.9375 5.953125 17.140625 
Q 6.203125 19.34375 6.6875 21.6875 
z
" id="DejaVuSans-Oblique-117"/>
      <path d="M 42.28125 54.6875 
L 40.921875 47.703125 
L 23 47.703125 
L 17.1875 18.015625 
Q 16.890625 16.359375 16.75 15.234375 
Q 16.609375 14.109375 16.609375 13.484375 
Q 16.609375 10.359375 18.484375 8.9375 
Q 20.359375 7.515625 24.515625 7.515625 
L 33.59375 7.515625 
L 32.078125 0 
L 23.484375 0 
Q 15.484375 0 11.546875 3.125 
Q 7.625 6.25 7.625 12.59375 
Q 7.625 13.71875 7.765625 15.0625 
Q 7.90625 16.40625 8.203125 18.015625 
L 14.015625 47.703125 
L 6.390625 47.703125 
L 7.8125 54.6875 
L 15.28125 54.6875 
L 18.3125 70.21875 
L 27.296875 70.21875 
L 24.3125 54.6875 
z
" id="DejaVuSans-Oblique-116"/>
     </defs>
     <use transform="translate(0 0.09375)" xlink:href="#DejaVuSans-Oblique-82"/>
     <use transform="translate(69.482422 -16.3125)scale(0.7)" xlink:href="#DejaVuSans-Oblique-86"/>
     <use transform="translate(117.368164 -27.796875)scale(0.49)" xlink:href="#DejaVuSans-Oblique-111"/>
     <use transform="translate(147.347168 -27.796875)scale(0.49)" xlink:href="#DejaVuSans-Oblique-117"/>
     <use transform="translate(178.402832 -27.796875)scale(0.49)" xlink:href="#DejaVuSans-Oblique-116"/>
    </g>
   </g>
   <g id="text_6">
    <!-- $R_{T_{out}}$ -->
    <g transform="translate(440.54 17.42)scale(0.14 -0.14)">
     <use transform="translate(0 0.09375)" xlink:href="#DejaVuSans-Oblique-82"/>
     <use transform="translate(69.482422 -16.3125)scale(0.7)" xlink:href="#DejaVuSans-Oblique-84"/>
     <use transform="translate(112.241211 -27.796875)scale(0.49)" xlink:href="#DejaVuSans-Oblique-111"/>
     <use transform="translate(142.220215 -27.796875)scale(0.49)" xlink:href="#DejaVuSans-Oblique-117"/>
     <use transform="translate(173.275879 -27.796875)scale(0.49)" xlink:href="#DejaVuSans-Oblique-116"/>
    </g>
   </g>
   <g id="text_7">
    <!-- $U_{Signal} - U_{out}$ -->
    <g transform="translate(363.45 101.29)scale(0.14 -0.14)">
     <use transform="translate(0 0.09375)" xlink:href="#DejaVuSans-Oblique-85"/>
     <use transform="translate(73.193359 -16.3125)scale(0.7)" xlink:href="#DejaVuSans-Oblique-83"/>
     <use transform="translate(117.626953 -16.3125)scale(0.7)" xlink:href="#DejaVuSans-Oblique-105"/>
     <use transform="translate(137.075195 -16.3125)scale(0.7)" xlink:href="#DejaVuSans-Oblique-103"/>
     <use transform="translate(181.508789 -16.3125)scale(0.7)" xlink:href="#DejaVuSans-Oblique-110"/>
     <use transform="translate(225.874023 -16.3125)scale(0.7)" xlink:href="#DejaVuSans-Oblique-97"/>
     <use transform="translate(268.769531 -16.3125)scale(0.7)" xlink:href="#DejaVuSans-Oblique-108"/>
     <use transform="translate(310.43457 0.09375)" xlink:href="#DejaVuSans-8722"/>
     <use transform="translate(413.706055 0.09375)" xlink:href="#DejaVuSans-Oblique-85"/>
     <use transform="translate(486.899414 -16.3125)scale(0.7)" xlink:href="#DejaVuSans-Oblique-111"/>
     <use transform="translate(529.726562 -16.3125)scale(0.7)" xlink:href="#DejaVuSans-Oblique-117"/>
     <use transform="translate(574.091797 -16.3125)scale(0.7)" xlink:href="#DejaVuSans-Oblique-116"/>
    </g>
   </g>
   <g id="patch_4">
    <path clip-path="url(#p619bdc4620)" d="M 17 34.485 
C 17.644444 34.485 18.262579 34.243184 18.718269 33.81281 
C 19.17396 33.382436 19.43 32.798641 19.43 32.19 
C 19.43 31.581359 19.17396 30.997564 18.718269 30.56719 
C 18.262579 30.136816 17.644444 29.895 17 29.895 
C 16.355556 29.895 15.737421 30.136816 15.281731 30.56719 
C 14.82604 30.997564 14.57 31.581359 14.57 32.19 
C 14.57 32.798641 14.82604 33.382436 15.281731 33.81281 
C 15.737421 34.243184 16.355556 34.485 17 34.485 
z
" style="stroke:#000000;stroke-linejoin:miter;stroke-width:2;"/>
   </g>
   <g id="patch_5">
    <path clip-path="url(#p619bdc4620)" d="M 276.2 34.485 
C 276.844444 34.485 277.462579 34.243184 277.918269 33.81281 
C 278.37396 33.382436 278.63 32.798641 278.63 32.19 
C 278.63 31.581359 278.37396 30.997564 277.918269 30.56719 
C 277.462579 30.136816 276.844444 29.895 276.2 29.895 
C 275.555556 29.895 274.937421 30.136816 274.481731 30.56719 
C 274.02604 30.997564 273.77 31.581359 273.77 32.19 
C 273.77 32.798641 274.02604 33.382436 274.481731 33.81281 
C 274.937421 34.243184 275.555556 34.485 276.2 34.485 
z
" style="stroke:#000000;stroke-linejoin:miter;stroke-width:2;"/>
   </g>
   <g id="patch_6">
    <path clip-path="url(#p619bdc4620)" d="M 276.2 126.285 
C 276.844444 126.285 277.462579 126.043184 277.918269 125.61281 
C 278.37396 125.182436 278.63 124.598641 278.63 123.99 
C 278.63 123.381359 278.37396 122.797564 277.918269 122.36719 
C 277.462579 121.936816 276.844444 121.695 276.2 121.695 
C 275.555556 121.695 274.937421 121.936816 274.481731 122.36719 
C 274.02604 122.797564 273.77 123.381359 273.77 123.99 
C 273.77 124.598641 274.02604 125.182436 274.481731 125.61281 
C 274.937421 126.043184 275.555556 126.285 276.2 126.285 
z
" style="stroke:#000000;stroke-linejoin:miter;stroke-width:2;"/>
   </g>
   <g id="patch_7">
    <path clip-path="url(#p619bdc4620)" d="M 535.4 34.485 
C 536.044444 34.485 536.662579 34.243184 537.118269 33.81281 
C 537.57396 33.382436 537.83 32.798641 537.83 32.19 
C 537.83 31.581359 537.57396 30.997564 537.118269 30.56719 
C 536.662579 30.136816 536.044444 29.895 535.4 29.895 
C 534.755556 29.895 534.137421 30.136816 533.681731 30.56719 
C 533.22604 30.997564 532.97 31.581359 532.97 32.19 
C 532.97 32.798641 533.22604 33.382436 533.681731 33.81281 
C 534.137421 34.243184 534.755556 34.485 535.4 34.485 
z
" style="stroke:#000000;stroke-linejoin:miter;stroke-width:2;"/>
   </g>
   <g id="text_8">
    <!-- $U_{in}$ -->
    <g transform="translate(7.2 23.923438)scale(0.14 -0.14)">
     <use transform="translate(0 0.09375)" xlink:href="#DejaVuSans-Oblique-85"/>
     <use transform="translate(73.193359 -16.3125)scale(0.7)" xlink:href="#DejaVuSans-Oblique-105"/>
     <use transform="translate(92.641602 -16.3125)scale(0.7)" xlink:href="#DejaVuSans-Oblique-110"/>
    </g>
   </g>
   <g id="text_9">
    <!-- $U_{Signal}$ -->
    <g transform="translate(255.83 139.565)scale(0.14 -0.14)">
     <use transform="translate(0 0.09375)" xlink:href="#DejaVuSans-Oblique-85"/>
     <use transform="translate(73.193359 -16.3125)scale(0.7)" xlink:href="#DejaVuSans-Oblique-83"/>
     <use transform="translate(117.626953 -16.3125)scale(0.7)" xlink:href="#DejaVuSans-Oblique-105"/>
     <use transform="translate(137.075195 -16.3125)scale(0.7)" xlink:href="#DejaVuSans-Oblique-103"/>
     <use transform="translate(181.508789 -16.3125)scale(0.7)" xlink:href="#DejaVuSans-Oblique-110"/>
     <use transform="translate(225.874023 -16.3125)scale(0.7)" xlink:href="#DejaVuSans-Oblique-97"/>
     <use transform="translate(268.769531 -16.3125)scale(0.7)" xlink:href="#DejaVuSans-Oblique-108"/>
    </g>
   </g>
   <g id="text_10">
    <!-- $U_{out}$ -->
    <g transform="translate(522.03 23.923438)scale(0.14 -0.14)">
     <use transform="translate(0 0.09375)" xlink:href="#DejaVuSans-Oblique-85"/>
     <use transform="translate(73.193359 -16.3125)scale(0.7)" xlink:href="#DejaVuSans-Oblique-111"/>
     <use transform="translate(116.020508 -16.3125)scale(0.7)" xlink:href="#DejaVuSans-Oblique-117"/>
     <use transform="translate(160.385742 -16.3125)scale(0.7)" xlink:href="#DejaVuSans-Oblique-116"/>
    </g>
   </g>
  </g>
 </g>
 <defs>
  <clipPath id="p619bdc4620">
   <rect height="120.87" width="529.74" x="11.33" y="21.48"/>
  </clipPath>
 </defs>
</svg>
