<?xml version="1.0" encoding="utf-8" standalone="no"?>
<!DOCTYPE svg PUBLIC "-//W3C//DTD SVG 1.1//EN"
  "http://www.w3.org/Graphics/SVG/1.1/DTD/svg11.dtd">
<!-- Created with matplotlib (https://matplotlib.org/) -->
<svg height="304.105pt" version="1.1" viewBox="0 0 750.37 304.105" width="750.37pt" xmlns="http://www.w3.org/2000/svg" xmlns:xlink="http://www.w3.org/1999/xlink">
 <metadata>
  <rdf:RDF xmlns:cc="http://creativecommons.org/ns#" xmlns:dc="http://purl.org/dc/elements/1.1/" xmlns:rdf="http://www.w3.org/1999/02/22-rdf-syntax-ns#">
   <cc:Work>
    <dc:type rdf:resource="http://purl.org/dc/dcmitype/StillImage"/>
    <dc:date>2020-11-10T13:40:07.961266</dc:date>
    <dc:format>image/svg+xml</dc:format>
    <dc:creator>
     <cc:Agent>
      <dc:title>Matplotlib v3.3.2, https://matplotlib.org/</dc:title>
     </cc:Agent>
    </dc:creator>
   </cc:Work>
  </rdf:RDF>
 </metadata>
 <defs>
  <style type="text/css">*{stroke-linecap:butt;stroke-linejoin:round;}</style>
 </defs>
 <g id="figure_1">
  <g id="patch_1">
   <path d="M 0 304.105 
L 750.37 304.105 
L 750.37 0 
L 0 0 
z
" style="fill:none;"/>
  </g>
  <g id="axes_1">
   <g id="patch_2">
    <path clip-path="url(#p57389eec15)" d="M 89.9 32.19 
C 89.9 31.175936 89.473014 30.202368 88.713782 29.485317 
C 87.954551 28.768265 86.923715 28.365 85.85 28.365 
C 84.776285 28.365 83.745449 28.768265 82.986218 29.485317 
C 82.226986 30.202368 81.8 31.175936 81.8 32.19 
" style="fill:none;stroke:#000000;stroke-linejoin:miter;stroke-width:2;"/>
   </g>
   <g id="patch_3">
    <path clip-path="url(#p57389eec15)" d="M 98 32.19 
C 98 31.175936 97.573014 30.202368 96.813782 29.485317 
C 96.054551 28.768265 95.023715 28.365 93.95 28.365 
C 92.876285 28.365 91.845449 28.768265 91.086218 29.485317 
C 90.326986 30.202368 89.9 31.175936 89.9 32.19 
" style="fill:none;stroke:#000000;stroke-linejoin:miter;stroke-width:2;"/>
   </g>
   <g id="patch_4">
    <path clip-path="url(#p57389eec15)" d="M 106.1 32.19 
C 106.1 31.175936 105.673014 30.202368 104.913782 29.485317 
C 104.154551 28.768265 103.123715 28.365 102.05 28.365 
C 100.976285 28.365 99.945449 28.768265 99.186218 29.485317 
C 98.426986 30.202368 98 31.175936 98 32.19 
" style="fill:none;stroke:#000000;stroke-linejoin:miter;stroke-width:2;"/>
   </g>
   <g id="patch_5">
    <path clip-path="url(#p57389eec15)" d="M 114.2 32.19 
C 114.2 31.175936 113.773014 30.202368 113.013782 29.485317 
C 112.254551 28.768265 111.223715 28.365 110.15 28.365 
C 109.076285 28.365 108.045449 28.768265 107.286218 29.485317 
C 106.526986 30.202368 106.1 31.175936 106.1 32.19 
" style="fill:none;stroke:#000000;stroke-linejoin:miter;stroke-width:2;"/>
   </g>
   <g id="patch_6">
    <path clip-path="url(#p57389eec15)" d="M 195.2 292.29 
C 199.49629 292.29 203.617194 290.677895 206.65513 287.808734 
C 209.693066 284.939572 211.4 281.047607 211.4 276.99 
C 211.4 272.932393 209.693066 269.040428 206.65513 266.171266 
C 203.617194 263.302105 199.49629 261.69 195.2 261.69 
C 190.90371 261.69 186.782806 263.302105 183.74487 266.171266 
C 180.706934 269.040428 179 272.932393 179 276.99 
C 179 281.047607 180.706934 284.939572 183.74487 287.808734 
C 186.782806 290.677895 190.90371 292.29 195.2 292.29 
z
" style="fill:none;stroke:#000000;stroke-dasharray:7.4,3.2;stroke-dashoffset:0;stroke-linejoin:miter;stroke-width:2;"/>
   </g>
   <g id="patch_7">
    <path clip-path="url(#p57389eec15)" d="M 640.7 32.19 
C 640.7 31.175936 640.273014 30.202368 639.513782 29.485317 
C 638.754551 28.768265 637.723715 28.365 636.65 28.365 
C 635.576285 28.365 634.545449 28.768265 633.786218 29.485317 
C 633.026986 30.202368 632.6 31.175936 632.6 32.19 
" style="fill:none;stroke:#000000;stroke-linejoin:miter;stroke-width:2;"/>
   </g>
   <g id="patch_8">
    <path clip-path="url(#p57389eec15)" d="M 648.8 32.19 
C 648.8 31.175936 648.373014 30.202368 647.613782 29.485317 
C 646.854551 28.768265 645.823715 28.365 644.75 28.365 
C 643.676285 28.365 642.645449 28.768265 641.886218 29.485317 
C 641.126986 30.202368 640.7 31.175936 640.7 32.19 
" style="fill:none;stroke:#000000;stroke-linejoin:miter;stroke-width:2;"/>
   </g>
   <g id="patch_9">
    <path clip-path="url(#p57389eec15)" d="M 656.9 32.19 
C 656.9 31.175936 656.473014 30.202368 655.713782 29.485317 
C 654.954551 28.768265 653.923715 28.365 652.85 28.365 
C 651.776285 28.365 650.745449 28.768265 649.986218 29.485317 
C 649.226986 30.202368 648.8 31.175936 648.8 32.19 
" style="fill:none;stroke:#000000;stroke-linejoin:miter;stroke-width:2;"/>
   </g>
   <g id="patch_10">
    <path clip-path="url(#p57389eec15)" d="M 665 32.19 
C 665 31.175936 664.573014 30.202368 663.813782 29.485317 
C 663.054551 28.768265 662.023715 28.365 660.95 28.365 
C 659.876285 28.365 658.845449 28.768265 658.086218 29.485317 
C 657.326986 30.202368 656.9 31.175936 656.9 32.19 
" style="fill:none;stroke:#000000;stroke-linejoin:miter;stroke-width:2;"/>
   </g>
   <g id="patch_11">
    <path clip-path="url(#p57389eec15)" d="M 551.6 292.29 
C 555.89629 292.29 560.017194 290.677895 563.05513 287.808734 
C 566.093066 284.939572 567.8 281.047607 567.8 276.99 
C 567.8 272.932393 566.093066 269.040428 563.05513 266.171266 
C 560.017194 263.302105 555.89629 261.69 551.6 261.69 
C 547.30371 261.69 543.182806 263.302105 540.14487 266.171266 
C 537.106934 269.040428 535.4 272.932393 535.4 276.99 
C 535.4 281.047607 537.106934 284.939572 540.14487 287.808734 
C 543.182806 290.677895 547.30371 292.29 551.6 292.29 
z
" style="fill:none;stroke:#000000;stroke-dasharray:7.4,3.2;stroke-dashoffset:0;stroke-linejoin:miter;stroke-width:2;"/>
   </g>
   <g id="line2d_1">
    <path clip-path="url(#p57389eec15)" d="M 17 32.19 
L 33.2 32.19 
L 49.4 32.19 
" style="fill:none;stroke:#000000;stroke-linecap:round;stroke-width:2;"/>
   </g>
   <g id="line2d_2">
    <path clip-path="url(#p57389eec15)" d="M 49.4 32.19 
L 81.8 32.19 
M 114.2 32.19 
L 146.6 32.19 
" style="fill:none;stroke:#000000;stroke-linecap:round;stroke-width:2;"/>
   </g>
   <g id="line2d_3">
    <path clip-path="url(#p57389eec15)" d="M 146.6 32.19 
L 179 32.19 
L 181.7 24.54 
L 187.1 39.84 
L 192.5 24.54 
L 197.9 39.84 
L 203.3 24.54 
L 208.7 39.84 
L 211.4 32.19 
L 243.8 32.19 
" style="fill:none;stroke:#000000;stroke-linecap:round;stroke-width:2;"/>
   </g>
   <g id="line2d_4">
    <path clip-path="url(#p57389eec15)" d="M 243.8 32.19 
L 243.8 55.14 
L 243.8 78.09 
" style="fill:none;stroke:#000000;stroke-linecap:round;stroke-width:2;"/>
   </g>
   <g id="line2d_5">
    <path clip-path="url(#p57389eec15)" d="M 243.8 78.09 
L 289.484 78.09 
M 289.484 70.44 
L 289.484 85.74 
M 295.316 70.44 
L 295.316 85.74 
M 295.316 78.09 
L 341 78.09 
" style="fill:none;stroke:#000000;stroke-linecap:round;stroke-width:2;"/>
   </g>
   <g id="line2d_6">
    <path clip-path="url(#p57389eec15)" d="M 341 78.09 
L 341 55.14 
L 341 32.19 
" style="fill:none;stroke:#000000;stroke-linecap:round;stroke-width:2;"/>
   </g>
   <g id="line2d_7">
    <path clip-path="url(#p57389eec15)" d="M 243.8 32.19 
L 276.2 32.19 
L 278.9 24.54 
L 284.3 39.84 
L 289.7 24.54 
L 295.1 39.84 
L 300.5 24.54 
L 305.9 39.84 
L 308.6 32.19 
L 341 32.19 
" style="fill:none;stroke:#000000;stroke-linecap:round;stroke-width:2;"/>
   </g>
   <g id="line2d_8">
    <path clip-path="url(#p57389eec15)" d="M 341 32.19 
L 357.2 32.19 
L 373.4 32.19 
" style="fill:none;stroke:#000000;stroke-linecap:round;stroke-width:2;"/>
   </g>
   <g id="line2d_9">
    <path clip-path="url(#p57389eec15)" d="M 373.4 32.19 
L 373.4 47.49 
L 373.4 62.79 
" style="fill:none;stroke:#000000;stroke-linecap:round;stroke-width:2;"/>
   </g>
   <g id="line2d_10">
    <path clip-path="url(#p57389eec15)" d="M 373.4 62.79 
L 373.4 93.39 
L 381.5 95.94 
L 365.3 101.04 
L 381.5 106.14 
L 365.3 111.24 
L 381.5 116.34 
L 365.3 121.44 
L 373.4 123.99 
L 373.4 154.59 
" style="fill:none;stroke:#000000;stroke-linecap:round;stroke-width:2;"/>
   </g>
   <g id="line2d_11">
    <path clip-path="url(#p57389eec15)" d="M 373.4 154.59 
L 373.4 197.736 
M 381.5 197.736 
L 365.3 197.736 
M 381.5 203.244 
L 365.3 203.244 
M 373.4 203.244 
L 373.4 246.39 
" style="fill:none;stroke:#000000;stroke-linecap:round;stroke-width:2;"/>
   </g>
   <g id="line2d_12">
    <path clip-path="url(#p57389eec15)" d="M 373.4 246.39 
L 373.4 261.69 
L 373.4 276.99 
" style="fill:none;stroke:#000000;stroke-linecap:round;stroke-width:2;"/>
   </g>
   <g id="line2d_13">
    <path clip-path="url(#p57389eec15)" d="M 373.4 276.99 
L 211.4 276.99 
L 211.4 276.99 
M 179 276.99 
L 179 276.99 
L 17 276.99 
" style="fill:none;stroke:#000000;stroke-dasharray:7.4,3.2;stroke-dashoffset:0;stroke-width:2;"/>
   </g>
   <g id="line2d_14">
    <path clip-path="url(#p57389eec15)" d="M 203.3 273.93 
L 203.3 280.05 
" style="fill:none;stroke:#000000;stroke-dasharray:7.4,3.2;stroke-dashoffset:0;stroke-width:2;"/>
   </g>
   <g id="line2d_15">
    <path clip-path="url(#p57389eec15)" d="M 190.34 276.99 
L 183.86 276.99 
" style="fill:none;stroke:#000000;stroke-dasharray:7.4,3.2;stroke-dashoffset:0;stroke-width:2;"/>
   </g>
   <g id="line2d_16">
    <path clip-path="url(#p57389eec15)" d="M 187.1 273.93 
L 187.1 280.05 
" style="fill:none;stroke:#000000;stroke-dasharray:7.4,3.2;stroke-dashoffset:0;stroke-width:2;"/>
   </g>
   <g id="line2d_17">
    <path clip-path="url(#p57389eec15)" d="M 17 276.99 
L 17 154.59 
L 17 32.19 
" style="fill:none;stroke:#000000;stroke-dasharray:7.4,3.2;stroke-dashoffset:0;stroke-width:2;"/>
   </g>
   <g id="line2d_18">
    <path clip-path="url(#p57389eec15)" d="M 373.4 32.19 
L 389.6 32.19 
L 405.8 32.19 
" style="fill:none;stroke:#000000;stroke-linecap:round;stroke-width:2;"/>
   </g>
   <g id="line2d_19">
    <path clip-path="url(#p57389eec15)" d="M 405.8 32.19 
L 405.8 55.14 
L 405.8 78.09 
" style="fill:none;stroke:#000000;stroke-linecap:round;stroke-width:2;"/>
   </g>
   <g id="line2d_20">
    <path clip-path="url(#p57389eec15)" d="M 405.8 78.09 
L 451.484 78.09 
M 451.484 70.44 
L 451.484 85.74 
M 457.316 70.44 
L 457.316 85.74 
M 457.316 78.09 
L 503 78.09 
" style="fill:none;stroke:#000000;stroke-linecap:round;stroke-width:2;"/>
   </g>
   <g id="line2d_21">
    <path clip-path="url(#p57389eec15)" d="M 503 78.09 
L 503 55.14 
L 503 32.19 
" style="fill:none;stroke:#000000;stroke-linecap:round;stroke-width:2;"/>
   </g>
   <g id="line2d_22">
    <path clip-path="url(#p57389eec15)" d="M 405.8 32.19 
L 438.2 32.19 
L 440.9 24.54 
L 446.3 39.84 
L 451.7 24.54 
L 457.1 39.84 
L 462.5 24.54 
L 467.9 39.84 
L 470.6 32.19 
L 503 32.19 
" style="fill:none;stroke:#000000;stroke-linecap:round;stroke-width:2;"/>
   </g>
   <g id="line2d_23">
    <path clip-path="url(#p57389eec15)" d="M 503 32.19 
L 535.4 32.19 
L 538.1 24.54 
L 543.5 39.84 
L 548.9 24.54 
L 554.3 39.84 
L 559.7 24.54 
L 565.1 39.84 
L 567.8 32.19 
L 600.2 32.19 
" style="fill:none;stroke:#000000;stroke-linecap:round;stroke-width:2;"/>
   </g>
   <g id="line2d_24">
    <path clip-path="url(#p57389eec15)" d="M 600.2 32.19 
L 632.6 32.19 
M 665 32.19 
L 697.4 32.19 
" style="fill:none;stroke:#000000;stroke-linecap:round;stroke-width:2;"/>
   </g>
   <g id="line2d_25">
    <path clip-path="url(#p57389eec15)" d="M 697.4 32.19 
L 713.6 32.19 
L 729.8 32.19 
" style="fill:none;stroke:#000000;stroke-linecap:round;stroke-width:2;"/>
   </g>
   <g id="line2d_26">
    <path clip-path="url(#p57389eec15)" d="M 729.8 32.19 
L 729.8 154.59 
L 729.8 276.99 
" style="fill:none;stroke:#000000;stroke-dasharray:7.4,3.2;stroke-dashoffset:0;stroke-width:2;"/>
   </g>
   <g id="line2d_27">
    <path clip-path="url(#p57389eec15)" d="M 729.8 276.99 
L 567.8 276.99 
L 567.8 276.99 
M 535.4 276.99 
L 535.4 276.99 
L 373.4 276.99 
" style="fill:none;stroke:#000000;stroke-dasharray:7.4,3.2;stroke-dashoffset:0;stroke-width:2;"/>
   </g>
   <g id="line2d_28">
    <path clip-path="url(#p57389eec15)" d="M 543.5 280.05 
L 543.5 273.93 
" style="fill:none;stroke:#000000;stroke-dasharray:7.4,3.2;stroke-dashoffset:0;stroke-width:2;"/>
   </g>
   <g id="line2d_29">
    <path clip-path="url(#p57389eec15)" d="M 562.94 276.99 
L 556.46 276.99 
" style="fill:none;stroke:#000000;stroke-dasharray:7.4,3.2;stroke-dashoffset:0;stroke-width:2;"/>
   </g>
   <g id="line2d_30">
    <path clip-path="url(#p57389eec15)" d="M 559.7 280.05 
L 559.7 273.93 
" style="fill:none;stroke:#000000;stroke-dasharray:7.4,3.2;stroke-dashoffset:0;stroke-width:2;"/>
   </g>
   <g id="text_1">
    <!-- $L_{T_{in}}$ -->
    <g transform="translate(87.64 21.385019)scale(0.14 -0.14)">
     <defs>
      <path d="M 16.796875 72.90625 
L 26.703125 72.90625 
L 14.203125 8.203125 
L 49.703125 8.203125 
L 48.09375 0 
L 2.6875 0 
z
" id="DejaVuSans-Oblique-76"/>
      <path d="M 5.90625 72.90625 
L 67.578125 72.90625 
L 66.015625 64.59375 
L 39.984375 64.59375 
L 27.484375 0 
L 17.578125 0 
L 30.078125 64.59375 
L 4.296875 64.59375 
z
" id="DejaVuSans-Oblique-84"/>
      <path d="M 18.3125 75.984375 
L 27.296875 75.984375 
L 25.09375 64.59375 
L 16.109375 64.59375 
z
M 14.203125 54.6875 
L 23.1875 54.6875 
L 12.5 0 
L 3.515625 0 
z
" id="DejaVuSans-Oblique-105"/>
      <path d="M 55.71875 33.015625 
L 49.3125 0 
L 40.28125 0 
L 46.6875 32.671875 
Q 47.125 34.96875 47.359375 36.71875 
Q 47.609375 38.484375 47.609375 39.5 
Q 47.609375 43.609375 45.015625 45.890625 
Q 42.4375 48.1875 37.796875 48.1875 
Q 30.5625 48.1875 25.34375 43.375 
Q 20.125 38.578125 18.5 30.328125 
L 12.5 0 
L 3.515625 0 
L 14.109375 54.6875 
L 23.09375 54.6875 
L 21.296875 46.09375 
Q 25.046875 50.828125 30.3125 53.40625 
Q 35.59375 56 41.40625 56 
Q 48.640625 56 52.609375 52.09375 
Q 56.59375 48.1875 56.59375 41.109375 
Q 56.59375 39.359375 56.375 37.359375 
Q 56.15625 35.359375 55.71875 33.015625 
z
" id="DejaVuSans-Oblique-110"/>
     </defs>
     <use transform="translate(0 0.09375)" xlink:href="#DejaVuSans-Oblique-76"/>
     <use transform="translate(55.712891 -16.3125)scale(0.7)" xlink:href="#DejaVuSans-Oblique-84"/>
     <use transform="translate(98.47168 -27.796875)scale(0.49)" xlink:href="#DejaVuSans-Oblique-105"/>
     <use transform="translate(112.085449 -27.796875)scale(0.49)" xlink:href="#DejaVuSans-Oblique-110"/>
    </g>
   </g>
   <g id="text_2">
    <!-- $R_{T_{in}}$ -->
    <g transform="translate(183.86 17.56)scale(0.14 -0.14)">
     <defs>
      <path d="M 25.203125 64.796875 
L 20.21875 38.921875 
L 32.90625 38.921875 
Q 40.375 38.921875 44.984375 43.046875 
Q 49.609375 47.171875 49.609375 53.8125 
Q 49.609375 59.125 46.5 61.953125 
Q 43.40625 64.796875 37.59375 64.796875 
z
M 43.3125 35.015625 
Q 46.4375 34.28125 48.515625 31.390625 
Q 50.59375 28.515625 53.328125 19.921875 
L 59.515625 0 
L 49.125 0 
L 43.40625 18.703125 
Q 41.21875 25.921875 38.328125 28.359375 
Q 35.453125 30.8125 29.5 30.8125 
L 18.609375 30.8125 
L 12.59375 0 
L 2.6875 0 
L 16.890625 72.90625 
L 39.109375 72.90625 
Q 49.21875 72.90625 54.609375 68.328125 
Q 60.015625 63.765625 60.015625 55.171875 
Q 60.015625 47.5625 55.421875 41.984375 
Q 50.828125 36.421875 43.3125 35.015625 
z
" id="DejaVuSans-Oblique-82"/>
     </defs>
     <use transform="translate(0 0.09375)" xlink:href="#DejaVuSans-Oblique-82"/>
     <use transform="translate(69.482422 -16.3125)scale(0.7)" xlink:href="#DejaVuSans-Oblique-84"/>
     <use transform="translate(112.241211 -27.796875)scale(0.49)" xlink:href="#DejaVuSans-Oblique-105"/>
     <use transform="translate(125.85498 -27.796875)scale(0.49)" xlink:href="#DejaVuSans-Oblique-110"/>
    </g>
   </g>
   <g id="text_3">
    <!-- $C_{V_{in}}$ -->
    <g transform="translate(280.64 99.3)scale(0.14 -0.14)">
     <defs>
      <path d="M 69.484375 67.28125 
L 67.484375 56.890625 
Q 62.796875 61.625 57.546875 63.921875 
Q 52.296875 66.21875 46.1875 66.21875 
Q 37.84375 66.21875 31.515625 62.203125 
Q 25.203125 58.203125 20.609375 50 
Q 17.671875 44.734375 16.125 38.84375 
Q 14.59375 32.953125 14.59375 27 
Q 14.59375 17.046875 19.75 11.8125 
Q 24.90625 6.59375 34.71875 6.59375 
Q 41.5 6.59375 47.75 8.765625 
Q 54 10.9375 59.90625 15.28125 
L 57.625 3.609375 
Q 51.8125 1.125 45.875 -0.140625 
Q 39.9375 -1.421875 33.984375 -1.421875 
Q 19.96875 -1.421875 12.078125 6.1875 
Q 4.203125 13.8125 4.203125 27.390625 
Q 4.203125 36.078125 7.203125 44.46875 
Q 10.203125 52.875 15.828125 59.8125 
Q 21.78125 67.1875 29.421875 70.703125 
Q 37.0625 74.21875 47.21875 74.21875 
Q 53.46875 74.21875 59.0625 72.484375 
Q 64.65625 70.75 69.484375 67.28125 
z
" id="DejaVuSans-Oblique-67"/>
      <path d="M 20.609375 0 
L 7.8125 72.90625 
L 17.484375 72.90625 
L 28.078125 10.203125 
L 63.484375 72.90625 
L 74.21875 72.90625 
L 32.078125 0 
z
" id="DejaVuSans-Oblique-86"/>
     </defs>
     <use transform="translate(0 0.78125)" xlink:href="#DejaVuSans-Oblique-67"/>
     <use transform="translate(69.824219 -15.625)scale(0.7)" xlink:href="#DejaVuSans-Oblique-86"/>
     <use transform="translate(117.709961 -27.109375)scale(0.49)" xlink:href="#DejaVuSans-Oblique-105"/>
     <use transform="translate(131.32373 -27.109375)scale(0.49)" xlink:href="#DejaVuSans-Oblique-110"/>
    </g>
   </g>
   <g id="text_4">
    <!-- $R_{V_{in}}$ -->
    <g transform="translate(280.71 17.56)scale(0.14 -0.14)">
     <use transform="translate(0 0.09375)" xlink:href="#DejaVuSans-Oblique-82"/>
     <use transform="translate(69.482422 -16.3125)scale(0.7)" xlink:href="#DejaVuSans-Oblique-86"/>
     <use transform="translate(117.368164 -27.796875)scale(0.49)" xlink:href="#DejaVuSans-Oblique-105"/>
     <use transform="translate(130.981934 -27.796875)scale(0.49)" xlink:href="#DejaVuSans-Oblique-110"/>
    </g>
   </g>
   <g id="text_5">
    <!-- $I_{in}$ -->
    <g transform="translate(350.41 26.218437)scale(0.14 -0.14)">
     <defs>
      <path d="M 16.890625 72.90625 
L 26.8125 72.90625 
L 12.59375 0 
L 2.6875 0 
z
" id="DejaVuSans-Oblique-73"/>
     </defs>
     <use transform="translate(0 0.09375)" xlink:href="#DejaVuSans-Oblique-73"/>
     <use transform="translate(29.492188 -16.3125)scale(0.7)" xlink:href="#DejaVuSans-Oblique-105"/>
     <use transform="translate(48.94043 -16.3125)scale(0.7)" xlink:href="#DejaVuSans-Oblique-110"/>
    </g>
   </g>
   <g id="text_6">
    <!-- $I_{C}$ -->
    <g transform="translate(358.68 51.353125)scale(0.14 -0.14)">
     <use transform="translate(0 0.09375)" xlink:href="#DejaVuSans-Oblique-73"/>
     <use transform="translate(29.492188 -16.3125)scale(0.7)" xlink:href="#DejaVuSans-Oblique-67"/>
    </g>
   </g>
   <g id="text_7">
    <!-- $R_{C}$ -->
    <g transform="translate(344.98 112.553125)scale(0.14 -0.14)">
     <use transform="translate(0 0.09375)" xlink:href="#DejaVuSans-Oblique-82"/>
     <use transform="translate(69.482422 -16.3125)scale(0.7)" xlink:href="#DejaVuSans-Oblique-67"/>
    </g>
   </g>
   <g id="text_8">
    <!-- $C_C$ -->
    <g transform="translate(344.98 204.353125)scale(0.14 -0.14)">
     <use transform="translate(0 0.78125)" xlink:href="#DejaVuSans-Oblique-67"/>
     <use transform="translate(69.824219 -15.625)scale(0.7)" xlink:href="#DejaVuSans-Oblique-67"/>
    </g>
   </g>
   <g id="text_9">
    <!-- $U_{Signal} - U_{in}$ -->
    <g transform="translate(156.42 254.29)scale(0.14 -0.14)">
     <defs>
      <path d="M 15.484375 72.90625 
L 25.390625 72.90625 
L 16.796875 28.609375 
Q 16.265625 25.640625 16.046875 23.703125 
Q 15.828125 21.78125 15.828125 20.3125 
Q 15.828125 13.578125 19.578125 10.078125 
Q 23.34375 6.59375 30.609375 6.59375 
Q 40.046875 6.59375 45.28125 11.765625 
Q 50.53125 16.9375 52.78125 28.609375 
L 61.375 72.90625 
L 71.296875 72.90625 
L 62.5 27.390625 
Q 59.625 12.640625 51.5625 5.609375 
Q 43.5 -1.421875 29.5 -1.421875 
Q 18.5625 -1.421875 12.1875 4.078125 
Q 5.8125 9.578125 5.8125 19 
Q 5.8125 20.703125 6.046875 22.828125 
Q 6.296875 24.953125 6.78125 27.390625 
z
" id="DejaVuSans-Oblique-85"/>
      <path d="M 60.296875 70.515625 
L 58.40625 60.890625 
Q 53.46875 63.53125 48.609375 64.875 
Q 43.75 66.21875 39.203125 66.21875 
Q 30.375 66.21875 25.140625 62.359375 
Q 19.921875 58.5 19.921875 52.09375 
Q 19.921875 48.578125 21.84375 46.703125 
Q 23.78125 44.828125 31.78125 42.671875 
L 37.703125 41.21875 
Q 47.703125 38.625 51.609375 34.640625 
Q 55.515625 30.671875 55.515625 23.484375 
Q 55.515625 12.453125 46.84375 5.515625 
Q 38.1875 -1.421875 24.03125 -1.421875 
Q 18.21875 -1.421875 12.359375 -0.265625 
Q 6.5 0.875 0.59375 3.21875 
L 2.59375 13.375 
Q 8.015625 10.015625 13.453125 8.296875 
Q 18.890625 6.59375 24.3125 6.59375 
Q 33.546875 6.59375 39.109375 10.6875 
Q 44.671875 14.796875 44.671875 21.390625 
Q 44.671875 25.78125 42.453125 28.046875 
Q 40.234375 30.328125 32.90625 32.171875 
L 27 33.6875 
Q 16.890625 36.328125 13.203125 39.765625 
Q 9.515625 43.21875 9.515625 49.421875 
Q 9.515625 60.296875 17.890625 67.25 
Q 26.265625 74.21875 39.703125 74.21875 
Q 44.921875 74.21875 50.046875 73.28125 
Q 55.171875 72.359375 60.296875 70.515625 
z
" id="DejaVuSans-Oblique-83"/>
      <path d="M 59.625 54.6875 
L 50.296875 6.78125 
Q 47.609375 -7.125 40.015625 -13.953125 
Q 32.421875 -20.796875 19.578125 -20.796875 
Q 14.84375 -20.796875 10.78125 -20.09375 
Q 6.734375 -19.390625 3.21875 -17.921875 
L 4.890625 -9.1875 
Q 8.203125 -11.328125 11.90625 -12.34375 
Q 15.625 -13.375 19.828125 -13.375 
Q 28.375 -13.375 33.859375 -8.703125 
Q 39.359375 -4.046875 41.109375 4.6875 
L 41.890625 8.796875 
Q 38.140625 4.5 33.15625 2.25 
Q 28.171875 0 22.40625 0 
Q 14.109375 0 9.34375 5.484375 
Q 4.59375 10.984375 4.59375 20.609375 
Q 4.59375 28.171875 7.46875 35.421875 
Q 10.359375 42.671875 15.578125 48.296875 
Q 19.046875 52 23.65625 54 
Q 28.265625 56 33.296875 56 
Q 38.8125 56 42.90625 53.4375 
Q 47.015625 50.875 49.03125 46.1875 
L 50.59375 54.6875 
z
M 46.09375 34.625 
Q 46.09375 41.265625 42.96875 44.875 
Q 39.84375 48.484375 34.078125 48.484375 
Q 30.515625 48.484375 27.296875 47.0625 
Q 24.078125 45.65625 21.78125 43.109375 
Q 18.0625 38.921875 15.984375 33.234375 
Q 13.921875 27.546875 13.921875 21.484375 
Q 13.921875 14.75 17.0625 11.125 
Q 20.21875 7.515625 26.125 7.515625 
Q 34.671875 7.515625 40.375 15.25 
Q 46.09375 23 46.09375 34.625 
z
" id="DejaVuSans-Oblique-103"/>
      <path d="M 53.71875 31.203125 
L 47.609375 0 
L 38.625 0 
L 40.28125 8.296875 
Q 36.328125 3.421875 31.265625 1 
Q 26.21875 -1.421875 20.015625 -1.421875 
Q 13.03125 -1.421875 8.5625 2.84375 
Q 4.109375 7.125 4.109375 13.8125 
Q 4.109375 23.390625 11.75 28.953125 
Q 19.390625 34.515625 32.8125 34.515625 
L 45.3125 34.515625 
L 45.796875 36.921875 
Q 45.90625 37.3125 45.953125 37.765625 
Q 46 38.234375 46 39.203125 
Q 46 43.5625 42.453125 45.96875 
Q 38.921875 48.390625 32.515625 48.390625 
Q 28.125 48.390625 23.5 47.265625 
Q 18.890625 46.140625 14.015625 43.890625 
L 15.578125 52.203125 
Q 20.65625 54.109375 25.515625 55.046875 
Q 30.375 56 34.90625 56 
Q 44.578125 56 49.625 51.796875 
Q 54.6875 47.609375 54.6875 39.59375 
Q 54.6875 37.984375 54.4375 35.8125 
Q 54.203125 33.640625 53.71875 31.203125 
z
M 44 27.484375 
L 35.015625 27.484375 
Q 23.96875 27.484375 18.671875 24.53125 
Q 13.375 21.578125 13.375 15.375 
Q 13.375 11.078125 16.078125 8.640625 
Q 18.796875 6.203125 23.578125 6.203125 
Q 30.90625 6.203125 36.375 11.453125 
Q 41.84375 16.703125 43.609375 25.484375 
z
" id="DejaVuSans-Oblique-97"/>
      <path d="M 18.3125 75.984375 
L 27.296875 75.984375 
L 12.5 0 
L 3.515625 0 
z
" id="DejaVuSans-Oblique-108"/>
      <path d="M 10.59375 35.5 
L 73.1875 35.5 
L 73.1875 27.203125 
L 10.59375 27.203125 
z
" id="DejaVuSans-8722"/>
     </defs>
     <use transform="translate(0 0.09375)" xlink:href="#DejaVuSans-Oblique-85"/>
     <use transform="translate(73.193359 -16.3125)scale(0.7)" xlink:href="#DejaVuSans-Oblique-83"/>
     <use transform="translate(117.626953 -16.3125)scale(0.7)" xlink:href="#DejaVuSans-Oblique-105"/>
     <use transform="translate(137.075195 -16.3125)scale(0.7)" xlink:href="#DejaVuSans-Oblique-103"/>
     <use transform="translate(181.508789 -16.3125)scale(0.7)" xlink:href="#DejaVuSans-Oblique-110"/>
     <use transform="translate(225.874023 -16.3125)scale(0.7)" xlink:href="#DejaVuSans-Oblique-97"/>
     <use transform="translate(268.769531 -16.3125)scale(0.7)" xlink:href="#DejaVuSans-Oblique-108"/>
     <use transform="translate(310.43457 0.09375)" xlink:href="#DejaVuSans-8722"/>
     <use transform="translate(413.706055 0.09375)" xlink:href="#DejaVuSans-Oblique-85"/>
     <use transform="translate(486.899414 -16.3125)scale(0.7)" xlink:href="#DejaVuSans-Oblique-105"/>
     <use transform="translate(506.347656 -16.3125)scale(0.7)" xlink:href="#DejaVuSans-Oblique-110"/>
    </g>
   </g>
   <g id="text_10">
    <!-- $I_{out}$ -->
    <g transform="translate(379.31 26.218437)scale(0.14 -0.14)">
     <defs>
      <path d="M 25.390625 -1.421875 
Q 15.765625 -1.421875 10.171875 4.515625 
Q 4.59375 10.453125 4.59375 20.703125 
Q 4.59375 26.65625 6.515625 32.828125 
Q 8.453125 39.015625 11.53125 43.21875 
Q 16.359375 49.75 22.3125 52.875 
Q 28.265625 56 35.796875 56 
Q 45.125 56 50.859375 50.1875 
Q 56.59375 44.390625 56.59375 35.015625 
Q 56.59375 28.515625 54.6875 22.0625 
Q 52.78125 15.625 49.703125 11.375 
Q 44.921875 4.828125 38.96875 1.703125 
Q 33.015625 -1.421875 25.390625 -1.421875 
z
M 13.921875 21 
Q 13.921875 13.578125 17.015625 9.890625 
Q 20.125 6.203125 26.421875 6.203125 
Q 35.453125 6.203125 41.375 14.078125 
Q 47.3125 21.96875 47.3125 34.078125 
Q 47.3125 41.15625 44.140625 44.765625 
Q 40.96875 48.390625 34.8125 48.390625 
Q 29.734375 48.390625 25.78125 46.015625 
Q 21.828125 43.65625 18.703125 38.8125 
Q 16.40625 35.203125 15.15625 30.5625 
Q 13.921875 25.921875 13.921875 21 
z
" id="DejaVuSans-Oblique-111"/>
      <path d="M 6.6875 21.6875 
L 13.09375 54.6875 
L 22.125 54.6875 
L 15.71875 22.015625 
Q 15.234375 19.625 15.015625 17.921875 
Q 14.796875 16.21875 14.796875 15.09375 
Q 14.796875 10.9375 17.328125 8.65625 
Q 19.875 6.390625 24.515625 6.390625 
Q 31.734375 6.390625 37 11.265625 
Q 42.28125 16.15625 43.890625 24.421875 
L 49.90625 54.6875 
L 58.890625 54.6875 
L 48.296875 0 
L 39.3125 0 
L 41.109375 8.59375 
Q 37.3125 3.8125 32.0625 1.1875 
Q 26.8125 -1.421875 20.90625 -1.421875 
Q 13.71875 -1.421875 9.71875 2.515625 
Q 5.71875 6.453125 5.71875 13.484375 
Q 5.71875 14.9375 5.953125 17.140625 
Q 6.203125 19.34375 6.6875 21.6875 
z
" id="DejaVuSans-Oblique-117"/>
      <path d="M 42.28125 54.6875 
L 40.921875 47.703125 
L 23 47.703125 
L 17.1875 18.015625 
Q 16.890625 16.359375 16.75 15.234375 
Q 16.609375 14.109375 16.609375 13.484375 
Q 16.609375 10.359375 18.484375 8.9375 
Q 20.359375 7.515625 24.515625 7.515625 
L 33.59375 7.515625 
L 32.078125 0 
L 23.484375 0 
Q 15.484375 0 11.546875 3.125 
Q 7.625 6.25 7.625 12.59375 
Q 7.625 13.71875 7.765625 15.0625 
Q 7.90625 16.40625 8.203125 18.015625 
L 14.015625 47.703125 
L 6.390625 47.703125 
L 7.8125 54.6875 
L 15.28125 54.6875 
L 18.3125 70.21875 
L 27.296875 70.21875 
L 24.3125 54.6875 
z
" id="DejaVuSans-Oblique-116"/>
     </defs>
     <use transform="translate(0 0.09375)" xlink:href="#DejaVuSans-Oblique-73"/>
     <use transform="translate(29.492188 -16.3125)scale(0.7)" xlink:href="#DejaVuSans-Oblique-111"/>
     <use transform="translate(72.319336 -16.3125)scale(0.7)" xlink:href="#DejaVuSans-Oblique-117"/>
     <use transform="translate(116.68457 -16.3125)scale(0.7)" xlink:href="#DejaVuSans-Oblique-116"/>
    </g>
   </g>
   <g id="text_11">
    <!-- $C_{V_{out}}$ -->
    <g transform="translate(440.19 99.3)scale(0.14 -0.14)">
     <use transform="translate(0 0.78125)" xlink:href="#DejaVuSans-Oblique-67"/>
     <use transform="translate(69.824219 -15.625)scale(0.7)" xlink:href="#DejaVuSans-Oblique-86"/>
     <use transform="translate(117.709961 -27.109375)scale(0.49)" xlink:href="#DejaVuSans-Oblique-111"/>
     <use transform="translate(147.688965 -27.109375)scale(0.49)" xlink:href="#DejaVuSans-Oblique-117"/>
     <use transform="translate(178.744629 -27.109375)scale(0.49)" xlink:href="#DejaVuSans-Oblique-116"/>
    </g>
   </g>
   <g id="text_12">
    <!-- $R_{V_{out}}$ -->
    <g transform="translate(440.19 17.42)scale(0.14 -0.14)">
     <use transform="translate(0 0.09375)" xlink:href="#DejaVuSans-Oblique-82"/>
     <use transform="translate(69.482422 -16.3125)scale(0.7)" xlink:href="#DejaVuSans-Oblique-86"/>
     <use transform="translate(117.368164 -27.796875)scale(0.49)" xlink:href="#DejaVuSans-Oblique-111"/>
     <use transform="translate(147.347168 -27.796875)scale(0.49)" xlink:href="#DejaVuSans-Oblique-117"/>
     <use transform="translate(178.402832 -27.796875)scale(0.49)" xlink:href="#DejaVuSans-Oblique-116"/>
    </g>
   </g>
   <g id="text_13">
    <!-- $R_{T_{out}}$ -->
    <g transform="translate(537.74 17.42)scale(0.14 -0.14)">
     <use transform="translate(0 0.09375)" xlink:href="#DejaVuSans-Oblique-82"/>
     <use transform="translate(69.482422 -16.3125)scale(0.7)" xlink:href="#DejaVuSans-Oblique-84"/>
     <use transform="translate(112.241211 -27.796875)scale(0.49)" xlink:href="#DejaVuSans-Oblique-111"/>
     <use transform="translate(142.220215 -27.796875)scale(0.49)" xlink:href="#DejaVuSans-Oblique-117"/>
     <use transform="translate(173.275879 -27.796875)scale(0.49)" xlink:href="#DejaVuSans-Oblique-116"/>
    </g>
   </g>
   <g id="text_14">
    <!-- $L_{T_{out}}$ -->
    <g transform="translate(635.92 21.245019)scale(0.14 -0.14)">
     <use transform="translate(0 0.09375)" xlink:href="#DejaVuSans-Oblique-76"/>
     <use transform="translate(55.712891 -16.3125)scale(0.7)" xlink:href="#DejaVuSans-Oblique-84"/>
     <use transform="translate(98.47168 -27.796875)scale(0.49)" xlink:href="#DejaVuSans-Oblique-111"/>
     <use transform="translate(128.450684 -27.796875)scale(0.49)" xlink:href="#DejaVuSans-Oblique-117"/>
     <use transform="translate(159.506348 -27.796875)scale(0.49)" xlink:href="#DejaVuSans-Oblique-116"/>
    </g>
   </g>
   <g id="text_15">
    <!-- $U_{Signal} - U_{out}$ -->
    <g transform="translate(509.25 254.29)scale(0.14 -0.14)">
     <use transform="translate(0 0.09375)" xlink:href="#DejaVuSans-Oblique-85"/>
     <use transform="translate(73.193359 -16.3125)scale(0.7)" xlink:href="#DejaVuSans-Oblique-83"/>
     <use transform="translate(117.626953 -16.3125)scale(0.7)" xlink:href="#DejaVuSans-Oblique-105"/>
     <use transform="translate(137.075195 -16.3125)scale(0.7)" xlink:href="#DejaVuSans-Oblique-103"/>
     <use transform="translate(181.508789 -16.3125)scale(0.7)" xlink:href="#DejaVuSans-Oblique-110"/>
     <use transform="translate(225.874023 -16.3125)scale(0.7)" xlink:href="#DejaVuSans-Oblique-97"/>
     <use transform="translate(268.769531 -16.3125)scale(0.7)" xlink:href="#DejaVuSans-Oblique-108"/>
     <use transform="translate(310.43457 0.09375)" xlink:href="#DejaVuSans-8722"/>
     <use transform="translate(413.706055 0.09375)" xlink:href="#DejaVuSans-Oblique-85"/>
     <use transform="translate(486.899414 -16.3125)scale(0.7)" xlink:href="#DejaVuSans-Oblique-111"/>
     <use transform="translate(529.726562 -16.3125)scale(0.7)" xlink:href="#DejaVuSans-Oblique-117"/>
     <use transform="translate(574.091797 -16.3125)scale(0.7)" xlink:href="#DejaVuSans-Oblique-116"/>
    </g>
   </g>
   <g id="patch_12">
    <path clip-path="url(#p57389eec15)" d="M 17 34.485 
C 17.644444 34.485 18.262579 34.243184 18.718269 33.81281 
C 19.17396 33.382436 19.43 32.798641 19.43 32.19 
C 19.43 31.581359 19.17396 30.997564 18.718269 30.56719 
C 18.262579 30.136816 17.644444 29.895 17 29.895 
C 16.355556 29.895 15.737421 30.136816 15.281731 30.56719 
C 14.82604 30.997564 14.57 31.581359 14.57 32.19 
C 14.57 32.798641 14.82604 33.382436 15.281731 33.81281 
C 15.737421 34.243184 16.355556 34.485 17 34.485 
z
" style="stroke:#000000;stroke-linejoin:miter;stroke-width:2;"/>
   </g>
   <g id="patch_13">
    <path clip-path="url(#p57389eec15)" d="M 373.4 34.485 
C 374.044444 34.485 374.662579 34.243184 375.118269 33.81281 
C 375.57396 33.382436 375.83 32.798641 375.83 32.19 
C 375.83 31.581359 375.57396 30.997564 375.118269 30.56719 
C 374.662579 30.136816 374.044444 29.895 373.4 29.895 
C 372.755556 29.895 372.137421 30.136816 371.681731 30.56719 
C 371.22604 30.997564 370.97 31.581359 370.97 32.19 
C 370.97 32.798641 371.22604 33.382436 371.681731 33.81281 
C 372.137421 34.243184 372.755556 34.485 373.4 34.485 
z
" style="stroke:#000000;stroke-linejoin:miter;stroke-width:2;"/>
   </g>
   <g id="patch_14">
    <path clip-path="url(#p57389eec15)" d="M 373.4 279.285 
C 374.044444 279.285 374.662579 279.043184 375.118269 278.61281 
C 375.57396 278.182436 375.83 277.598641 375.83 276.99 
C 375.83 276.381359 375.57396 275.797564 375.118269 275.36719 
C 374.662579 274.936816 374.044444 274.695 373.4 274.695 
C 372.755556 274.695 372.137421 274.936816 371.681731 275.36719 
C 371.22604 275.797564 370.97 276.381359 370.97 276.99 
C 370.97 277.598641 371.22604 278.182436 371.681731 278.61281 
C 372.137421 279.043184 372.755556 279.285 373.4 279.285 
z
" style="stroke:#000000;stroke-linejoin:miter;stroke-width:2;"/>
   </g>
   <g id="patch_15">
    <path clip-path="url(#p57389eec15)" d="M 729.8 34.485 
C 730.444444 34.485 731.062579 34.243184 731.518269 33.81281 
C 731.97396 33.382436 732.23 32.798641 732.23 32.19 
C 732.23 31.581359 731.97396 30.997564 731.518269 30.56719 
C 731.062579 30.136816 730.444444 29.895 729.8 29.895 
C 729.155556 29.895 728.537421 30.136816 728.081731 30.56719 
C 727.62604 30.997564 727.37 31.581359 727.37 32.19 
C 727.37 32.798641 727.62604 33.382436 728.081731 33.81281 
C 728.537421 34.243184 729.155556 34.485 729.8 34.485 
z
" style="stroke:#000000;stroke-linejoin:miter;stroke-width:2;"/>
   </g>
   <g id="text_16">
    <!-- $U_{in}$ -->
    <g transform="translate(7.2 23.923437)scale(0.14 -0.14)">
     <use transform="translate(0 0.09375)" xlink:href="#DejaVuSans-Oblique-85"/>
     <use transform="translate(73.193359 -16.3125)scale(0.7)" xlink:href="#DejaVuSans-Oblique-105"/>
     <use transform="translate(92.641602 -16.3125)scale(0.7)" xlink:href="#DejaVuSans-Oblique-110"/>
    </g>
   </g>
   <g id="text_17">
    <!-- $U_{Signal}$ -->
    <g transform="translate(353.03 292.565)scale(0.14 -0.14)">
     <use transform="translate(0 0.09375)" xlink:href="#DejaVuSans-Oblique-85"/>
     <use transform="translate(73.193359 -16.3125)scale(0.7)" xlink:href="#DejaVuSans-Oblique-83"/>
     <use transform="translate(117.626953 -16.3125)scale(0.7)" xlink:href="#DejaVuSans-Oblique-105"/>
     <use transform="translate(137.075195 -16.3125)scale(0.7)" xlink:href="#DejaVuSans-Oblique-103"/>
     <use transform="translate(181.508789 -16.3125)scale(0.7)" xlink:href="#DejaVuSans-Oblique-110"/>
     <use transform="translate(225.874023 -16.3125)scale(0.7)" xlink:href="#DejaVuSans-Oblique-97"/>
     <use transform="translate(268.769531 -16.3125)scale(0.7)" xlink:href="#DejaVuSans-Oblique-108"/>
    </g>
   </g>
   <g id="text_18">
    <!-- $U_{out}$ -->
    <g transform="translate(716.43 23.923437)scale(0.14 -0.14)">
     <use transform="translate(0 0.09375)" xlink:href="#DejaVuSans-Oblique-85"/>
     <use transform="translate(73.193359 -16.3125)scale(0.7)" xlink:href="#DejaVuSans-Oblique-111"/>
     <use transform="translate(116.020508 -16.3125)scale(0.7)" xlink:href="#DejaVuSans-Oblique-117"/>
     <use transform="translate(160.385742 -16.3125)scale(0.7)" xlink:href="#DejaVuSans-Oblique-116"/>
    </g>
   </g>
  </g>
 </g>
 <defs>
  <clipPath id="p57389eec15">
   <rect height="273.87" width="724.14" x="11.33" y="21.48"/>
  </clipPath>
 </defs>
</svg>
